<svg xmlns="http://www.w3.org/2000/svg" viewBox="0 0 520 640" width="520" height="640" role="img" aria-label="Application document preview with photo area">
  <defs>
    <linearGradient id="bg" x1="0" y1="0" x2="0" y2="1">
      <stop offset="0" stop-color="#ffffff"/>
      <stop offset="1" stop-color="#f3f6fb"/>
    </linearGradient>
  </defs>

  <!-- page -->
  <rect x="10" y="10" width="500" height="620" rx="14" fill="url(#bg)" stroke="#e6eaf0" stroke-width="2"/>

  <!-- header band -->
  <rect x="10" y="10" width="500" height="92" rx="14" fill="#0d1b2a"/>
  <rect x="10" y="80" width="500" height="22" fill="#0d1b2a"/>
  <rect x="36" y="36" width="44" height="44" rx="10" fill="#f4b400"/>
  <text x="58" y="66" text-anchor="middle" font-family="Arial, sans-serif" font-size="20" font-weight="800" fill="#0d1b2a">BH</text>
  <text x="96" y="52" font-family="Arial, sans-serif" font-size="22" font-weight="800" fill="#ffffff">Business Hub</text>
  <text x="96" y="76" font-family="Arial, sans-serif" font-size="13" fill="#b9c4d4">Agent Application Document</text>

  <!-- photo box -->
  <rect x="330" y="130" width="150" height="170" rx="8" fill="#f5f7fb" stroke="#c9d2e0" stroke-width="2" stroke-dasharray="7 6"/>
  <circle cx="405" cy="200" r="34" fill="#dbe3ef"/>
  <circle cx="405" cy="188" r="13" fill="#aab8cd"/>
  <path d="M378 232 q27 -34 54 0 z" fill="#aab8cd"/>
  <text x="405" y="280" text-anchor="middle" font-family="Arial, sans-serif" font-size="13" font-weight="700" fill="#7a8699">ADD PHOTO</text>

  <!-- form labels/lines (left) -->
  <g font-family="Arial, sans-serif" font-size="13" fill="#7a8699">
    <text x="40" y="150">Full Name</text>
    <rect x="40" y="158" width="260" height="22" rx="5" fill="#eef2f8"/>
    <text x="40" y="200">Age</text>
    <rect x="40" y="208" width="120" height="22" rx="5" fill="#eef2f8"/>
    <text x="40" y="250">Country of Origin</text>
    <rect x="40" y="258" width="260" height="22" rx="5" fill="#eef2f8"/>
  </g>

  <!-- divider -->
  <rect x="40" y="320" width="440" height="2" fill="#e6eaf0"/>

  <!-- full width fields -->
  <g font-family="Arial, sans-serif" font-size="13" fill="#7a8699">
    <text x="40" y="352">Previous Profession</text>
    <rect x="40" y="360" width="440" height="22" rx="5" fill="#eef2f8"/>
    <text x="40" y="402">Marketing / Other Experience</text>
    <rect x="40" y="410" width="440" height="46" rx="5" fill="#eef2f8"/>
    <text x="40" y="488">How did you find us?</text>
    <rect x="40" y="496" width="440" height="22" rx="5" fill="#eef2f8"/>
    <text x="40" y="538">Online / Data / Computer experience</text>
    <rect x="40" y="546" width="440" height="46" rx="5" fill="#eef2f8"/>
  </g>

  <!-- footer note -->
  <text x="40" y="614" font-family="Arial, sans-serif" font-size="11" fill="#aab8cd">Replace this preview with your own document image in /assets/document-photo.svg</text>
</svg>
